<mxfile host="Electron" agent="Mozilla/5.0 (Windows NT 10.0; Win64; x64) AppleWebKit/537.36 (KHTML, like Gecko) draw.io/26.0.16 Chrome/132.0.6834.196 Electron/34.2.0 Safari/537.36" version="26.0.16" pages="2">
  <diagram name="DiagrammeClasse" id="WDVF1NGtRIW92hToeRX4">
    <mxGraphModel dx="2269" dy="1363" grid="1" gridSize="10" guides="1" tooltips="1" connect="1" arrows="1" fold="1" page="1" pageScale="1" pageWidth="3300" pageHeight="2339" math="0" shadow="0">
      <root>
        <mxCell id="0" />
        <mxCell id="1" parent="0" />
        <mxCell id="MRRiI0vzuQ_NeNsmJOBv-51" style="rounded=0;orthogonalLoop=1;jettySize=auto;html=1;endArrow=none;startFill=0;fontSize=17;labelBackgroundColor=default;fontColor=default;endFill=1;align=center;verticalAlign=middle;fontFamily=Helvetica;startSize=13;endSize=13;edgeStyle=orthogonalEdgeStyle;strokeColor=default;" parent="1" source="MRRiI0vzuQ_NeNsmJOBv-115" target="MRRiI0vzuQ_NeNsmJOBv-116" edge="1">
          <mxGeometry relative="1" as="geometry">
            <mxPoint x="1697" y="1620" as="sourcePoint" />
            <mxPoint x="1917.09" y="1280" as="targetPoint" />
            <Array as="points">
              <mxPoint x="2300" y="2080" />
              <mxPoint x="1650" y="2080" />
            </Array>
          </mxGeometry>
        </mxCell>
        <mxCell id="MRRiI0vzuQ_NeNsmJOBv-73" value="1" style="edgeLabel;html=1;align=center;verticalAlign=middle;resizable=0;points=[];fontSize=17;rounded=0;fontFamily=Helvetica;labelBackgroundColor=default;strokeColor=default;fontColor=default;" parent="MRRiI0vzuQ_NeNsmJOBv-51" vertex="1" connectable="0">
          <mxGeometry x="-0.7426" y="3" relative="1" as="geometry">
            <mxPoint x="-3" y="-1" as="offset" />
          </mxGeometry>
        </mxCell>
        <mxCell id="MRRiI0vzuQ_NeNsmJOBv-74" value="1..*" style="edgeLabel;html=1;align=center;verticalAlign=middle;resizable=0;points=[];fontSize=17;rounded=0;fontFamily=Helvetica;labelBackgroundColor=default;strokeColor=default;fontColor=default;" parent="MRRiI0vzuQ_NeNsmJOBv-51" vertex="1" connectable="0">
          <mxGeometry x="0.768" y="-6" relative="1" as="geometry">
            <mxPoint x="4" y="-31" as="offset" />
          </mxGeometry>
        </mxCell>
        <mxCell id="MRRiI0vzuQ_NeNsmJOBv-70" style="rounded=0;orthogonalLoop=1;jettySize=auto;html=1;fontColor=default;fontSize=17;endSize=13;edgeStyle=orthogonalEdgeStyle;labelBackgroundColor=default;strokeColor=default;align=center;verticalAlign=middle;fontFamily=Helvetica;startFill=0;startSize=13;endArrow=none;" parent="1" source="MRRiI0vzuQ_NeNsmJOBv-116" target="MRRiI0vzuQ_NeNsmJOBv-114" edge="1">
          <mxGeometry relative="1" as="geometry">
            <mxPoint x="1867" y="1890" as="sourcePoint" />
            <mxPoint x="1077" y="1880" as="targetPoint" />
            <Array as="points">
              <mxPoint x="1650" y="1800" />
              <mxPoint x="1845" y="1800" />
            </Array>
          </mxGeometry>
        </mxCell>
        <mxCell id="MRRiI0vzuQ_NeNsmJOBv-71" value="1" style="edgeLabel;html=1;align=center;verticalAlign=middle;resizable=0;points=[];fontSize=17;labelBackgroundColor=default;rounded=0;strokeColor=default;fontFamily=Helvetica;fontColor=default;" parent="MRRiI0vzuQ_NeNsmJOBv-70" vertex="1" connectable="0">
          <mxGeometry x="-0.8727" y="1" relative="1" as="geometry">
            <mxPoint as="offset" />
          </mxGeometry>
        </mxCell>
        <mxCell id="MRRiI0vzuQ_NeNsmJOBv-72" value="1..*" style="edgeLabel;html=1;align=center;verticalAlign=middle;resizable=0;points=[];fontSize=17;labelBackgroundColor=default;rounded=0;strokeColor=default;fontFamily=Helvetica;fontColor=default;" parent="MRRiI0vzuQ_NeNsmJOBv-70" vertex="1" connectable="0">
          <mxGeometry x="0.8789" y="-1" relative="1" as="geometry">
            <mxPoint x="1" y="-11" as="offset" />
          </mxGeometry>
        </mxCell>
        <mxCell id="MRRiI0vzuQ_NeNsmJOBv-47" style="rounded=0;orthogonalLoop=1;jettySize=auto;html=1;endArrow=none;startFill=0;startArrow=none;fontSize=17;labelBackgroundColor=default;fontColor=default;endSize=13;startSize=13;edgeStyle=orthogonalEdgeStyle;strokeColor=default;align=center;verticalAlign=middle;fontFamily=Helvetica;" parent="1" source="MRRiI0vzuQ_NeNsmJOBv-114" target="MRRiI0vzuQ_NeNsmJOBv-109" edge="1">
          <mxGeometry relative="1" as="geometry">
            <mxPoint x="943.3978494623656" y="1540" as="sourcePoint" />
            <mxPoint x="1300" y="1260" as="targetPoint" />
            <Array as="points">
              <mxPoint x="1860" y="865" />
              <mxPoint x="1860" y="1670" />
              <mxPoint x="30" y="1670" />
              <mxPoint x="30" y="400" />
            </Array>
          </mxGeometry>
        </mxCell>
        <mxCell id="MRRiI0vzuQ_NeNsmJOBv-49" value="1" style="edgeLabel;html=1;align=center;verticalAlign=middle;resizable=0;points=[];fontSize=17;labelBackgroundColor=default;rounded=0;strokeColor=default;fontFamily=Helvetica;fontColor=default;" parent="MRRiI0vzuQ_NeNsmJOBv-47" vertex="1" connectable="0">
          <mxGeometry x="0.8663" y="2" relative="1" as="geometry">
            <mxPoint y="21" as="offset" />
          </mxGeometry>
        </mxCell>
        <mxCell id="MRRiI0vzuQ_NeNsmJOBv-50" value="1..*" style="edgeLabel;html=1;align=center;verticalAlign=middle;resizable=0;points=[];fontSize=17;labelBackgroundColor=default;rounded=0;strokeColor=default;fontFamily=Helvetica;fontColor=default;" parent="MRRiI0vzuQ_NeNsmJOBv-47" vertex="1" connectable="0">
          <mxGeometry x="-0.794" y="2" relative="1" as="geometry">
            <mxPoint y="-42" as="offset" />
          </mxGeometry>
        </mxCell>
        <mxCell id="MRRiI0vzuQ_NeNsmJOBv-67" style="rounded=0;orthogonalLoop=1;jettySize=auto;html=1;fontColor=default;endArrow=none;startFill=0;fontSize=17;labelBackgroundColor=default;edgeStyle=orthogonalEdgeStyle;" parent="1" source="MRRiI0vzuQ_NeNsmJOBv-117" target="MRRiI0vzuQ_NeNsmJOBv-118" edge="1">
          <mxGeometry relative="1" as="geometry">
            <mxPoint x="2227" y="1136" as="sourcePoint" />
            <mxPoint x="2227" y="1350" as="targetPoint" />
            <Array as="points">
              <mxPoint x="2960" y="1260" />
            </Array>
          </mxGeometry>
        </mxCell>
        <mxCell id="MRRiI0vzuQ_NeNsmJOBv-68" value="1" style="edgeLabel;html=1;align=center;verticalAlign=middle;resizable=0;points=[];fontSize=17;labelBackgroundColor=default;" parent="MRRiI0vzuQ_NeNsmJOBv-67" vertex="1" connectable="0">
          <mxGeometry x="-0.873" y="1" relative="1" as="geometry">
            <mxPoint y="17" as="offset" />
          </mxGeometry>
        </mxCell>
        <mxCell id="MRRiI0vzuQ_NeNsmJOBv-69" value="1" style="edgeLabel;html=1;align=center;verticalAlign=middle;resizable=0;points=[];fontSize=17;labelBackgroundColor=default;" parent="MRRiI0vzuQ_NeNsmJOBv-67" vertex="1" connectable="0">
          <mxGeometry x="0.8478" y="-2" relative="1" as="geometry">
            <mxPoint y="-14" as="offset" />
          </mxGeometry>
        </mxCell>
        <mxCell id="MRRiI0vzuQ_NeNsmJOBv-76" style="rounded=0;orthogonalLoop=1;jettySize=auto;html=1;fontColor=default;endSize=13;startSize=13;fontSize=17;edgeStyle=orthogonalEdgeStyle;labelBackgroundColor=default;endArrow=none;startFill=0;" parent="1" source="MRRiI0vzuQ_NeNsmJOBv-117" target="MRRiI0vzuQ_NeNsmJOBv-114" edge="1">
          <mxGeometry relative="1" as="geometry">
            <mxPoint x="2137" y="1031.9999999999998" as="sourcePoint" />
            <mxPoint x="987" y="1400" as="targetPoint" />
            <Array as="points">
              <mxPoint x="2555" y="890" />
            </Array>
          </mxGeometry>
        </mxCell>
        <mxCell id="MRRiI0vzuQ_NeNsmJOBv-142" value="1..*" style="edgeLabel;html=1;align=center;verticalAlign=middle;resizable=0;points=[];fontSize=17;labelBackgroundColor=default;" parent="MRRiI0vzuQ_NeNsmJOBv-76" vertex="1" connectable="0">
          <mxGeometry x="-0.9364" y="-3" relative="1" as="geometry">
            <mxPoint as="offset" />
          </mxGeometry>
        </mxCell>
        <mxCell id="MRRiI0vzuQ_NeNsmJOBv-143" value="1" style="edgeLabel;html=1;align=center;verticalAlign=middle;resizable=0;points=[];fontSize=17;labelBackgroundColor=default;" parent="MRRiI0vzuQ_NeNsmJOBv-76" vertex="1" connectable="0">
          <mxGeometry x="0.8791" y="-5" relative="1" as="geometry">
            <mxPoint as="offset" />
          </mxGeometry>
        </mxCell>
        <mxCell id="TgIcoWI04hzJOjvMOH4S-14" style="edgeStyle=orthogonalEdgeStyle;rounded=0;orthogonalLoop=1;jettySize=auto;html=1;endArrow=none;startFill=0;fontSize=17;" edge="1" parent="1" source="MRRiI0vzuQ_NeNsmJOBv-109" target="TgIcoWI04hzJOjvMOH4S-13">
          <mxGeometry relative="1" as="geometry">
            <Array as="points">
              <mxPoint x="230" y="120" />
            </Array>
          </mxGeometry>
        </mxCell>
        <mxCell id="TgIcoWI04hzJOjvMOH4S-15" value="1" style="edgeLabel;html=1;align=center;verticalAlign=middle;resizable=0;points=[];fontSize=17;" vertex="1" connectable="0" parent="TgIcoWI04hzJOjvMOH4S-14">
          <mxGeometry x="-0.81" y="-3" relative="1" as="geometry">
            <mxPoint x="1" as="offset" />
          </mxGeometry>
        </mxCell>
        <mxCell id="TgIcoWI04hzJOjvMOH4S-16" value="1..*" style="edgeLabel;html=1;align=center;verticalAlign=middle;resizable=0;points=[];fontSize=17;" vertex="1" connectable="0" parent="TgIcoWI04hzJOjvMOH4S-14">
          <mxGeometry x="0.7583" y="3" relative="1" as="geometry">
            <mxPoint as="offset" />
          </mxGeometry>
        </mxCell>
        <mxCell id="TgIcoWI04hzJOjvMOH4S-21" style="edgeStyle=orthogonalEdgeStyle;rounded=0;orthogonalLoop=1;jettySize=auto;html=1;endArrow=none;startFill=0;fontSize=17;" edge="1" parent="1" source="MRRiI0vzuQ_NeNsmJOBv-109" target="TgIcoWI04hzJOjvMOH4S-20">
          <mxGeometry relative="1" as="geometry">
            <Array as="points">
              <mxPoint x="840" y="420" />
              <mxPoint x="840" y="420" />
            </Array>
          </mxGeometry>
        </mxCell>
        <mxCell id="TgIcoWI04hzJOjvMOH4S-28" value="1" style="edgeLabel;html=1;align=center;verticalAlign=middle;resizable=0;points=[];fontSize=17;" vertex="1" connectable="0" parent="TgIcoWI04hzJOjvMOH4S-21">
          <mxGeometry x="-0.8022" relative="1" as="geometry">
            <mxPoint as="offset" />
          </mxGeometry>
        </mxCell>
        <mxCell id="TgIcoWI04hzJOjvMOH4S-29" value="1" style="edgeLabel;html=1;align=center;verticalAlign=middle;resizable=0;points=[];fontSize=17;" vertex="1" connectable="0" parent="TgIcoWI04hzJOjvMOH4S-21">
          <mxGeometry x="0.8384" y="-3" relative="1" as="geometry">
            <mxPoint as="offset" />
          </mxGeometry>
        </mxCell>
        <mxCell id="TgIcoWI04hzJOjvMOH4S-23" style="rounded=0;orthogonalLoop=1;jettySize=auto;html=1;endArrow=block;endFill=0;endSize=13;fontSize=17;" edge="1" parent="1" source="MRRiI0vzuQ_NeNsmJOBv-109" target="MRRiI0vzuQ_NeNsmJOBv-123">
          <mxGeometry relative="1" as="geometry" />
        </mxCell>
        <mxCell id="TgIcoWI04hzJOjvMOH4S-25" style="rounded=0;orthogonalLoop=1;jettySize=auto;html=1;strokeColor=default;align=center;verticalAlign=middle;fontFamily=Helvetica;fontSize=17;fontColor=default;labelBackgroundColor=default;endArrow=block;endFill=0;endSize=13;" edge="1" parent="1" source="MRRiI0vzuQ_NeNsmJOBv-109" target="94EZLkctISXA683zea8p-8">
          <mxGeometry relative="1" as="geometry" />
        </mxCell>
        <mxCell id="TgIcoWI04hzJOjvMOH4S-26" style="rounded=0;orthogonalLoop=1;jettySize=auto;html=1;strokeColor=default;align=center;verticalAlign=middle;fontFamily=Helvetica;fontSize=17;fontColor=default;labelBackgroundColor=default;endArrow=block;endFill=0;endSize=13;" edge="1" parent="1" source="MRRiI0vzuQ_NeNsmJOBv-109" target="MRRiI0vzuQ_NeNsmJOBv-122">
          <mxGeometry relative="1" as="geometry" />
        </mxCell>
        <mxCell id="TgIcoWI04hzJOjvMOH4S-27" style="rounded=0;orthogonalLoop=1;jettySize=auto;html=1;strokeColor=default;align=center;verticalAlign=middle;fontFamily=Helvetica;fontSize=17;fontColor=default;labelBackgroundColor=default;endArrow=block;endFill=0;endSize=13;" edge="1" parent="1" source="MRRiI0vzuQ_NeNsmJOBv-109" target="TgIcoWI04hzJOjvMOH4S-1">
          <mxGeometry relative="1" as="geometry" />
        </mxCell>
        <mxCell id="MRRiI0vzuQ_NeNsmJOBv-109" value="&lt;p style=&quot;margin:0px;margin-top:4px;text-align:center;&quot;&gt;&lt;b&gt;User&lt;/b&gt;&lt;/p&gt;&lt;hr style=&quot;border-style:solid;&quot;&gt;&lt;div&gt;&lt;span style=&quot;background-color: transparent; color: light-dark(rgb(0, 0, 0), rgb(255, 255, 255));&quot;&gt;&amp;nbsp;&lt;/span&gt;&lt;span style=&quot;background-color: transparent; color: light-dark(rgb(0, 0, 0), rgb(255, 255, 255));&quot;&gt;- Nom : String&lt;/span&gt;&lt;/div&gt;&lt;div&gt;&lt;span&gt;&amp;nbsp;&lt;/span&gt;&lt;span&gt;- Prenom : String&lt;/span&gt;&lt;/div&gt;&lt;div&gt;&amp;nbsp;&amp;nbsp;- Username : String&lt;div&gt;&lt;div&gt;&amp;nbsp; - Password : String&lt;/div&gt;&lt;div&gt;&amp;nbsp; - Email : String&lt;/div&gt;&lt;div&gt;&amp;nbsp; - Roles : List&amp;lt;Role&amp;gt;&lt;/div&gt;&lt;div&gt;&lt;div&gt;&lt;/div&gt;&lt;/div&gt;&lt;/div&gt;&lt;div style=&quot;height:2px;&quot;&gt;&lt;/div&gt;&lt;hr style=&quot;border-style:solid;&quot;&gt;&amp;nbsp;+ getUserName() : string&lt;/div&gt;&lt;div&gt;&amp;nbsp;+ getEmail() :string&lt;/div&gt;&lt;div&gt;&amp;nbsp;+ getNom() : string&lt;/div&gt;&lt;div&gt;&amp;nbsp;+ getPrenom() : string&lt;br&gt;&lt;div style=&quot;height:2px;&quot;&gt;&amp;nbsp;&lt;/div&gt;&lt;div style=&quot;height:2px;&quot;&gt;&lt;br&gt;&lt;/div&gt;&lt;/div&gt;" style="verticalAlign=top;align=left;overflow=fill;html=1;whiteSpace=wrap;fontSize=17;labelBackgroundColor=none;" parent="1" vertex="1">
          <mxGeometry x="90" y="260" width="470" height="280" as="geometry" />
        </mxCell>
        <mxCell id="MRRiI0vzuQ_NeNsmJOBv-114" value="&lt;p style=&quot;margin:0px;margin-top:4px;text-align:center;&quot;&gt;&lt;b&gt;UE&lt;/b&gt;&lt;/p&gt;&lt;hr style=&quot;border-style:solid;&quot;&gt;&amp;nbsp;&lt;span&gt;- Code : String&lt;/span&gt;&lt;div&gt;&lt;span&gt;&amp;nbsp;&lt;/span&gt;&lt;span&gt;- Nom : String&lt;/span&gt;&lt;/div&gt;&lt;div&gt;&lt;span&gt;&amp;nbsp;&lt;/span&gt;&lt;span&gt;- NombreHeures : int&lt;/span&gt;&lt;span&gt;&lt;br&gt;&lt;/span&gt;&lt;div style=&quot;height:2px;&quot;&gt;&lt;/div&gt;&lt;hr style=&quot;border-style:solid;&quot;&gt;&lt;div style=&quot;height:2px;&quot;&gt;&amp;nbsp;+ getNom() : string&lt;/div&gt;&lt;/div&gt;&lt;div style=&quot;height:2px;&quot;&gt;&lt;br&gt;&lt;/div&gt;&lt;div style=&quot;height:2px;&quot;&gt;&lt;br&gt;&lt;/div&gt;&lt;div style=&quot;height:2px;&quot;&gt;&lt;br&gt;&lt;/div&gt;&lt;div style=&quot;height:2px;&quot;&gt;&lt;br&gt;&lt;/div&gt;&lt;div style=&quot;height:2px;&quot;&gt;&lt;br&gt;&lt;/div&gt;&lt;div style=&quot;height:2px;&quot;&gt;&lt;br&gt;&lt;/div&gt;&lt;div style=&quot;height:2px;&quot;&gt;&lt;br&gt;&lt;/div&gt;&lt;div style=&quot;height:2px;&quot;&gt;&lt;br&gt;&lt;/div&gt;&lt;div style=&quot;height:2px;&quot;&gt;&lt;br&gt;&lt;/div&gt;&lt;div style=&quot;height:2px;&quot;&gt;&amp;nbsp;+&amp;nbsp;getNombreHeures () : int&lt;/div&gt;&lt;div style=&quot;height:2px;&quot;&gt;&lt;br&gt;&lt;/div&gt;&lt;div style=&quot;height:2px;&quot;&gt;&lt;br&gt;&lt;/div&gt;&lt;div style=&quot;height:2px;&quot;&gt;&lt;br&gt;&lt;/div&gt;&lt;div style=&quot;height:2px;&quot;&gt;&lt;br&gt;&lt;/div&gt;&lt;div style=&quot;height:2px;&quot;&gt;&lt;br&gt;&lt;/div&gt;&lt;div style=&quot;height:2px;&quot;&gt;&lt;br&gt;&lt;/div&gt;&lt;div style=&quot;height:2px;&quot;&gt;&lt;br&gt;&lt;/div&gt;&lt;div style=&quot;height:2px;&quot;&gt;&lt;br&gt;&lt;/div&gt;&lt;div style=&quot;height:2px;&quot;&gt;&amp;nbsp;+ getCode() : int&lt;/div&gt;&lt;div style=&quot;height:2px;&quot;&gt;&lt;br&gt;&lt;/div&gt;&lt;div style=&quot;height:2px;&quot;&gt;&lt;br&gt;&lt;/div&gt;&lt;div style=&quot;height:2px;&quot;&gt;&lt;br&gt;&lt;/div&gt;&lt;div style=&quot;height:2px;&quot;&gt;&lt;br&gt;&lt;/div&gt;&lt;div style=&quot;height:2px;&quot;&gt;&lt;br&gt;&lt;/div&gt;&lt;div style=&quot;height:2px;&quot;&gt;&lt;br&gt;&lt;/div&gt;&lt;div style=&quot;height:2px;&quot;&gt;&lt;br&gt;&lt;/div&gt;&lt;div style=&quot;height:2px;&quot;&gt;&lt;br&gt;&lt;/div&gt;&lt;div style=&quot;height:2px;&quot;&gt;&lt;br&gt;&lt;/div&gt;&lt;div style=&quot;height:2px;&quot;&gt;&amp;nbsp;+&amp;nbsp;setNombreHeures() : void&lt;/div&gt;" style="verticalAlign=top;align=left;overflow=fill;html=1;whiteSpace=wrap;fontSize=17;labelBackgroundColor=none;" parent="1" vertex="1">
          <mxGeometry x="1960" y="760" width="230" height="210" as="geometry" />
        </mxCell>
        <mxCell id="MRRiI0vzuQ_NeNsmJOBv-115" value="&lt;p style=&quot;margin:0px;margin-top:4px;text-align:center;&quot;&gt;&lt;b&gt;Filière&lt;/b&gt;&lt;/p&gt;&lt;hr style=&quot;border-style:solid;&quot;&gt;&amp;nbsp;- Code : string&lt;div&gt;&amp;nbsp;- Nom : string&lt;/div&gt;&lt;div&gt;&amp;nbsp;- Description : string&lt;br&gt;&lt;div style=&quot;height:2px;&quot;&gt;&lt;/div&gt;&lt;hr style=&quot;border-style:solid;&quot;&gt;&lt;div style=&quot;height:2px;&quot;&gt;&amp;nbsp;+&amp;nbsp;getNom() : string&lt;/div&gt;&lt;/div&gt;&lt;div style=&quot;height:2px;&quot;&gt;&lt;br&gt;&lt;/div&gt;&lt;div style=&quot;height:2px;&quot;&gt;&lt;br&gt;&lt;/div&gt;&lt;div style=&quot;height:2px;&quot;&gt;&lt;br&gt;&lt;/div&gt;&lt;div style=&quot;height:2px;&quot;&gt;&lt;br&gt;&lt;/div&gt;&lt;div style=&quot;height:2px;&quot;&gt;&lt;br&gt;&lt;/div&gt;&lt;div style=&quot;height:2px;&quot;&gt;&lt;br&gt;&lt;/div&gt;&lt;div style=&quot;height:2px;&quot;&gt;&amp;nbsp;&lt;/div&gt;&lt;div style=&quot;height:2px;&quot;&gt;&lt;br&gt;&lt;/div&gt;&lt;div style=&quot;height:2px;&quot;&gt;&amp;nbsp;+ getCode() :string&lt;/div&gt;&lt;div style=&quot;height:2px;&quot;&gt;&lt;br&gt;&lt;/div&gt;&lt;div style=&quot;height:2px;&quot;&gt;&lt;br&gt;&lt;/div&gt;&lt;div style=&quot;height:2px;&quot;&gt;&lt;br&gt;&lt;/div&gt;&lt;div style=&quot;height:2px;&quot;&gt;&lt;br&gt;&lt;/div&gt;&lt;div style=&quot;height:2px;&quot;&gt;&lt;br&gt;&lt;/div&gt;&lt;div style=&quot;height:2px;&quot;&gt;&lt;br&gt;&lt;/div&gt;&lt;div style=&quot;height:2px;&quot;&gt;&lt;br&gt;&lt;/div&gt;&lt;div style=&quot;height:2px;&quot;&gt;&lt;br&gt;&lt;/div&gt;&lt;div style=&quot;height:2px;&quot;&gt;&lt;br&gt;&lt;/div&gt;&lt;div style=&quot;height:2px;&quot;&gt;&amp;nbsp;+ getDescription() :string&lt;/div&gt;&lt;div style=&quot;height:2px;&quot;&gt;&lt;br&gt;&lt;/div&gt;&lt;div style=&quot;height:2px;&quot;&gt;&lt;br&gt;&lt;/div&gt;&lt;div style=&quot;height:2px;&quot;&gt;&lt;br&gt;&lt;/div&gt;&lt;div style=&quot;height:2px;&quot;&gt;&lt;br&gt;&lt;/div&gt;&lt;div style=&quot;height:2px;&quot;&gt;&lt;br&gt;&lt;/div&gt;&lt;div style=&quot;height:2px;&quot;&gt;&lt;br&gt;&lt;/div&gt;&lt;div style=&quot;height:2px;&quot;&gt;&lt;br&gt;&lt;/div&gt;&lt;div style=&quot;height:2px;&quot;&gt;&amp;nbsp;+ setDescription() : string&lt;/div&gt;" style="verticalAlign=top;align=left;overflow=fill;html=1;whiteSpace=wrap;fontSize=17;labelBackgroundColor=none;" parent="1" vertex="1">
          <mxGeometry x="2213" y="1520" width="210" height="230" as="geometry" />
        </mxCell>
        <mxCell id="MRRiI0vzuQ_NeNsmJOBv-116" value="&lt;p style=&quot;margin:0px;margin-top:4px;text-align:center;&quot;&gt;&lt;b&gt;Niveau&lt;/b&gt;&lt;/p&gt;&lt;hr style=&quot;border-style:solid;&quot;&gt;&amp;nbsp;- Code : string&lt;div&gt;&amp;nbsp;- Nom : string&lt;br&gt;&lt;div style=&quot;height:2px;&quot;&gt;&lt;/div&gt;&lt;hr style=&quot;border-style:solid;&quot;&gt;&lt;div style=&quot;height:2px;&quot;&gt;&amp;nbsp;+ getCode() :sting&lt;/div&gt;&lt;/div&gt;&lt;div style=&quot;height:2px;&quot;&gt;&lt;br&gt;&lt;/div&gt;&lt;div style=&quot;height:2px;&quot;&gt;&lt;br&gt;&lt;/div&gt;&lt;div style=&quot;height:2px;&quot;&gt;&lt;br&gt;&lt;/div&gt;&lt;div style=&quot;height:2px;&quot;&gt;&lt;br&gt;&lt;/div&gt;&lt;div style=&quot;height:2px;&quot;&gt;&lt;br&gt;&lt;/div&gt;&lt;div style=&quot;height:2px;&quot;&gt;&lt;br&gt;&lt;/div&gt;&lt;div style=&quot;height:2px;&quot;&gt;&lt;br&gt;&lt;/div&gt;&lt;div style=&quot;height:2px;&quot;&gt;&lt;br&gt;&lt;/div&gt;&lt;div style=&quot;height:2px;&quot;&gt;&amp;nbsp;+&amp;nbsp;setCode(string code) : void&lt;/div&gt;&lt;div style=&quot;height:2px;&quot;&gt;&lt;br&gt;&lt;/div&gt;&lt;div style=&quot;height:2px;&quot;&gt;&lt;br&gt;&lt;/div&gt;&lt;div style=&quot;height:2px;&quot;&gt;&lt;br&gt;&lt;/div&gt;&lt;div style=&quot;height:2px;&quot;&gt;&lt;br&gt;&lt;/div&gt;&lt;div style=&quot;height:2px;&quot;&gt;&lt;br&gt;&lt;/div&gt;&lt;div style=&quot;height:2px;&quot;&gt;&lt;br&gt;&lt;/div&gt;&lt;div style=&quot;height:2px;&quot;&gt;&lt;br&gt;&lt;/div&gt;&lt;div style=&quot;height:2px;&quot;&gt;&lt;br&gt;&lt;/div&gt;&lt;div style=&quot;height:2px;&quot;&gt;&amp;nbsp;+ getNom () : string&lt;/div&gt;&lt;div style=&quot;height:2px;&quot;&gt;&lt;br&gt;&lt;/div&gt;&lt;div style=&quot;height:2px;&quot;&gt;&lt;br&gt;&lt;/div&gt;&lt;div style=&quot;height:2px;&quot;&gt;&lt;br&gt;&lt;/div&gt;&lt;div style=&quot;height:2px;&quot;&gt;&lt;br&gt;&lt;/div&gt;&lt;div style=&quot;height:2px;&quot;&gt;&lt;br&gt;&lt;/div&gt;&lt;div style=&quot;height:2px;&quot;&gt;&lt;br&gt;&lt;/div&gt;&lt;div style=&quot;height:2px;&quot;&gt;&lt;br&gt;&lt;/div&gt;&lt;div style=&quot;height:2px;&quot;&gt;&amp;nbsp;+ setNom(string nom) : void&lt;/div&gt;" style="verticalAlign=top;align=left;overflow=fill;html=1;whiteSpace=wrap;fontSize=17;labelBackgroundColor=none;" parent="1" vertex="1">
          <mxGeometry x="1550" y="1750" width="240" height="180" as="geometry" />
        </mxCell>
        <mxCell id="TgIcoWI04hzJOjvMOH4S-35" style="edgeStyle=orthogonalEdgeStyle;rounded=0;orthogonalLoop=1;jettySize=auto;html=1;endArrow=none;startFill=0;fontSize=17;" edge="1" parent="1" source="MRRiI0vzuQ_NeNsmJOBv-117" target="MRRiI0vzuQ_NeNsmJOBv-109">
          <mxGeometry relative="1" as="geometry">
            <Array as="points">
              <mxPoint x="2585" y="2150" />
              <mxPoint x="110" y="2150" />
            </Array>
          </mxGeometry>
        </mxCell>
        <mxCell id="TgIcoWI04hzJOjvMOH4S-36" value="1" style="edgeLabel;html=1;align=center;verticalAlign=middle;resizable=0;points=[];fontSize=17;" vertex="1" connectable="0" parent="TgIcoWI04hzJOjvMOH4S-35">
          <mxGeometry x="0.9771" y="14" relative="1" as="geometry">
            <mxPoint y="1" as="offset" />
          </mxGeometry>
        </mxCell>
        <mxCell id="TgIcoWI04hzJOjvMOH4S-37" value="1..*" style="edgeLabel;html=1;align=center;verticalAlign=middle;resizable=0;points=[];fontSize=17;" vertex="1" connectable="0" parent="TgIcoWI04hzJOjvMOH4S-35">
          <mxGeometry x="-0.9678" y="3" relative="1" as="geometry">
            <mxPoint y="1" as="offset" />
          </mxGeometry>
        </mxCell>
        <mxCell id="TgIcoWI04hzJOjvMOH4S-38" style="edgeStyle=orthogonalEdgeStyle;rounded=0;orthogonalLoop=1;jettySize=auto;html=1;endArrow=none;startFill=0;" edge="1" parent="1" source="MRRiI0vzuQ_NeNsmJOBv-117" target="94EZLkctISXA683zea8p-2">
          <mxGeometry relative="1" as="geometry">
            <Array as="points">
              <mxPoint x="2660" y="1120" />
              <mxPoint x="3140" y="1120" />
              <mxPoint x="3140" y="200" />
            </Array>
          </mxGeometry>
        </mxCell>
        <mxCell id="MRRiI0vzuQ_NeNsmJOBv-117" value="&lt;p style=&quot;margin:0px;margin-top:4px;text-align:center;&quot;&gt;&lt;b&gt;Seance&lt;/b&gt;&lt;/p&gt;&lt;hr style=&quot;border-style:solid;&quot;&gt;&amp;nbsp;- date_cours : date&lt;div&gt;&amp;nbsp;- heure_debut : time&lt;/div&gt;&lt;div&gt;- heure_fin : time&lt;/div&gt;&lt;div&gt;- duree : int&lt;/div&gt;&lt;div&gt;- titre_lecon : string&lt;br&gt;&lt;div style=&quot;height:2px;&quot;&gt;&lt;br&gt;&lt;/div&gt;&lt;hr style=&quot;border-style:solid;&quot;&gt;&lt;div style=&quot;height:2px;&quot;&gt;&amp;nbsp;&lt;/div&gt;&lt;/div&gt;" style="verticalAlign=top;align=left;overflow=fill;html=1;whiteSpace=wrap;fontSize=17;labelBackgroundColor=none;" parent="1" vertex="1">
          <mxGeometry x="2470" y="1210" width="230" height="260" as="geometry" />
        </mxCell>
        <mxCell id="MRRiI0vzuQ_NeNsmJOBv-118" value="&lt;p style=&quot;margin:0px;margin-top:4px;text-align:center;&quot;&gt;&lt;b&gt;Signature&lt;/b&gt;&lt;/p&gt;&lt;hr style=&quot;border-style:solid;&quot;&gt;&amp;nbsp;- professeur_signature : boolean&lt;div&gt;&amp;nbsp;- date_signature_prof : date&lt;/div&gt;&lt;div&gt;&lt;div style=&quot;height:2px;&quot;&gt;&lt;/div&gt;&lt;hr style=&quot;border-style:solid;&quot;&gt;&lt;div style=&quot;height:2px;&quot;&gt;&amp;nbsp;+ getProfesseurSignature() : boolean&lt;/div&gt;&lt;/div&gt;&lt;div style=&quot;height:2px;&quot;&gt;&lt;br&gt;&lt;/div&gt;&lt;div style=&quot;height:2px;&quot;&gt;&lt;br&gt;&lt;/div&gt;&lt;div style=&quot;height:2px;&quot;&gt;&lt;br&gt;&lt;/div&gt;&lt;div style=&quot;height:2px;&quot;&gt;&lt;br&gt;&lt;/div&gt;&lt;div style=&quot;height:2px;&quot;&gt;&lt;br&gt;&lt;/div&gt;&lt;div style=&quot;height:2px;&quot;&gt;&lt;br&gt;&lt;/div&gt;&lt;div style=&quot;height:2px;&quot;&gt;&lt;br&gt;&lt;/div&gt;&lt;div style=&quot;height:2px;&quot;&gt;&lt;br&gt;&lt;/div&gt;&lt;div style=&quot;height:2px;&quot;&gt;&lt;br&gt;&lt;/div&gt;&lt;div style=&quot;height:2px;&quot;&gt;&lt;br&gt;&lt;/div&gt;&lt;div style=&quot;height:2px;&quot;&gt;&amp;nbsp;+ getDateSignatureProf() : date&lt;/div&gt;&lt;div style=&quot;height:2px;&quot;&gt;&lt;br&gt;&lt;/div&gt;&lt;div style=&quot;height:2px;&quot;&gt;&lt;br&gt;&lt;/div&gt;&lt;div style=&quot;height:2px;&quot;&gt;&lt;br&gt;&lt;/div&gt;&lt;div style=&quot;height:2px;&quot;&gt;&lt;br&gt;&lt;/div&gt;&lt;div style=&quot;height:2px;&quot;&gt;&lt;br&gt;&lt;/div&gt;&lt;div style=&quot;height:2px;&quot;&gt;&lt;br&gt;&lt;/div&gt;&lt;div style=&quot;height:2px;&quot;&gt;&lt;br&gt;&lt;/div&gt;&lt;div style=&quot;height:2px;&quot;&gt;&lt;br&gt;&lt;/div&gt;&lt;div style=&quot;height:2px;&quot;&gt;&amp;nbsp;+ setProfesseurSignature(boolean signature) : void&lt;/div&gt;&lt;div style=&quot;height:2px;&quot;&gt;&lt;br&gt;&lt;/div&gt;&lt;div style=&quot;height:2px;&quot;&gt;&lt;br&gt;&lt;/div&gt;&lt;div style=&quot;height:2px;&quot;&gt;&lt;br&gt;&lt;/div&gt;&lt;div style=&quot;height:2px;&quot;&gt;&lt;br&gt;&lt;/div&gt;&lt;div style=&quot;height:2px;&quot;&gt;&lt;br&gt;&lt;/div&gt;&lt;div style=&quot;height:2px;&quot;&gt;&lt;br&gt;&lt;/div&gt;&lt;div style=&quot;height:2px;&quot;&gt;&lt;br&gt;&lt;/div&gt;&lt;div style=&quot;height:2px;&quot;&gt;&amp;nbsp;+ setDateSignature(date signature) : void&lt;/div&gt;" style="verticalAlign=top;align=left;overflow=fill;html=1;whiteSpace=wrap;fontSize=17;labelBackgroundColor=none;" parent="1" vertex="1">
          <mxGeometry x="2810" y="1510" width="400" height="190" as="geometry" />
        </mxCell>
        <mxCell id="MRRiI0vzuQ_NeNsmJOBv-122" value="&lt;p style=&quot;margin:0px;margin-top:4px;text-align:center;&quot;&gt;&lt;i&gt;&amp;lt;&amp;lt;Interface&amp;gt;&amp;gt;&lt;/i&gt;&lt;br&gt;&lt;b&gt;ResponsableCahierText&lt;/b&gt;&lt;/p&gt;&lt;hr style=&quot;border-style:solid;&quot;&gt;&lt;p style=&quot;margin:0px;margin-left:4px;&quot;&gt;&lt;br&gt;&lt;/p&gt;&lt;hr style=&quot;border-style:solid;&quot;&gt;&lt;div style=&quot;height: 2px;&quot;&gt;&amp;nbsp;+&amp;nbsp;validerSeance(Seance seance) : void&lt;/div&gt;&lt;div style=&quot;height: 2px;&quot;&gt;&lt;br&gt;&lt;/div&gt;&lt;div style=&quot;height: 2px;&quot;&gt;&lt;br&gt;&lt;/div&gt;&lt;div style=&quot;height: 2px;&quot;&gt;&lt;br&gt;&lt;/div&gt;&lt;div style=&quot;height: 2px;&quot;&gt;&lt;br&gt;&lt;/div&gt;&lt;div style=&quot;height: 2px;&quot;&gt;&lt;br&gt;&lt;/div&gt;&lt;div style=&quot;height: 2px;&quot;&gt;&lt;br&gt;&lt;/div&gt;&lt;div style=&quot;height: 2px;&quot;&gt;&lt;br&gt;&lt;/div&gt;&lt;div style=&quot;height: 2px;&quot;&gt;&lt;br&gt;&lt;/div&gt;&lt;div style=&quot;height: 2px;&quot;&gt;&amp;nbsp;+&amp;nbsp;consulterCahierTexte(Niveau niveau) : Seance&lt;/div&gt;&lt;div style=&quot;height: 2px;&quot;&gt;&lt;br&gt;&lt;/div&gt;&lt;div style=&quot;height: 2px;&quot;&gt;&lt;br&gt;&lt;/div&gt;&lt;div style=&quot;height: 2px;&quot;&gt;&lt;br&gt;&lt;/div&gt;&lt;div style=&quot;height: 2px;&quot;&gt;&lt;br&gt;&lt;/div&gt;&lt;div style=&quot;height: 2px;&quot;&gt;&lt;br&gt;&lt;/div&gt;&lt;div style=&quot;height: 2px;&quot;&gt;&lt;br&gt;&lt;/div&gt;&lt;div style=&quot;height: 2px;&quot;&gt;&lt;br&gt;&lt;/div&gt;&lt;div style=&quot;height: 2px;&quot;&gt;&lt;br&gt;&lt;/div&gt;&lt;div style=&quot;height: 2px;&quot;&gt;&lt;br&gt;&lt;/div&gt;&lt;div style=&quot;height: 2px;&quot;&gt;&lt;br&gt;&lt;/div&gt;&lt;div style=&quot;height: 2px;&quot;&gt;&amp;nbsp;+ consulterAllSeance() : List&amp;lt;Seance&amp;gt;&lt;/div&gt;&lt;div style=&quot;height: 2px;&quot;&gt;&lt;br&gt;&lt;/div&gt;&lt;div style=&quot;height: 2px;&quot;&gt;&lt;br&gt;&lt;/div&gt;&lt;div style=&quot;height: 2px;&quot;&gt;&lt;br&gt;&lt;/div&gt;&lt;div style=&quot;height: 2px;&quot;&gt;&lt;br&gt;&lt;/div&gt;&lt;div style=&quot;height: 2px;&quot;&gt;&lt;br&gt;&lt;/div&gt;&lt;div style=&quot;height: 2px;&quot;&gt;&lt;br&gt;&lt;/div&gt;&lt;div style=&quot;height: 2px;&quot;&gt;&lt;br&gt;&lt;/div&gt;&lt;div style=&quot;height: 2px;&quot;&gt;&lt;br&gt;&lt;/div&gt;&lt;div style=&quot;height: 2px;&quot;&gt;&amp;nbsp;+ ajouterSeance(Seance seance ) : void&lt;/div&gt;&lt;div style=&quot;height: 2px;&quot;&gt;&lt;br&gt;&lt;/div&gt;&lt;div style=&quot;height: 2px;&quot;&gt;&lt;br&gt;&lt;/div&gt;&lt;div style=&quot;height: 2px;&quot;&gt;&lt;br&gt;&lt;/div&gt;&lt;div style=&quot;height: 2px;&quot;&gt;&lt;br&gt;&lt;/div&gt;&lt;div style=&quot;height: 2px;&quot;&gt;&lt;br&gt;&lt;/div&gt;&lt;div style=&quot;height: 2px;&quot;&gt;&lt;br&gt;&lt;/div&gt;&lt;div style=&quot;height: 2px;&quot;&gt;&lt;br&gt;&lt;/div&gt;&lt;div style=&quot;height: 2px;&quot;&gt;&lt;br&gt;&lt;/div&gt;&lt;div style=&quot;height: 2px;&quot;&gt;&amp;nbsp;+ modifierCahierTexte(Seance&amp;nbsp; oldSeance, Seance newSeance )&lt;/div&gt;" style="verticalAlign=top;align=left;overflow=fill;html=1;whiteSpace=wrap;fontSize=17;labelBackgroundColor=none;" parent="1" vertex="1">
          <mxGeometry x="690" y="1050" width="510" height="220" as="geometry" />
        </mxCell>
        <mxCell id="MRRiI0vzuQ_NeNsmJOBv-123" value="&lt;p style=&quot;margin:0px;margin-top:4px;text-align:center;&quot;&gt;&lt;i&gt;&amp;lt;&amp;lt;Interface&amp;gt;&amp;gt;&lt;/i&gt;&lt;br&gt;&lt;b&gt;GestionUtilisateur&lt;/b&gt;&lt;/p&gt;&lt;hr style=&quot;border-style:solid;&quot;&gt;&lt;p style=&quot;margin:0px;margin-left:4px;&quot;&gt;&lt;br&gt;&lt;/p&gt;&lt;hr style=&quot;border-style:solid;&quot;&gt;&lt;p style=&quot;margin:0px;margin-left:4px;&quot;&gt;&amp;nbsp;+ getProfesseur(String username):User&lt;/p&gt;&lt;p style=&quot;margin:0px;margin-left:4px;&quot;&gt;&amp;nbsp;+ getAllProfesseur() : List&amp;lt;Professeurs&amp;gt;&lt;/p&gt;&lt;p style=&quot;margin:0px;margin-left:4px;&quot;&gt;&amp;nbsp;+ deleteProfesseur(string username): void&lt;/p&gt;&lt;p style=&quot;margin:0px;margin-left:4px;&quot;&gt;&amp;nbsp;+ creerProfesseur() : void&lt;/p&gt;&lt;p style=&quot;margin:0px;margin-left:4px;&quot;&gt;&amp;nbsp;+ getDelegue(String username) : User&lt;/p&gt;&lt;p style=&quot;margin:0px;margin-left:4px;&quot;&gt;&amp;nbsp;+ getAllDelegue() : List&amp;lt;Delegue&amp;gt;&lt;/p&gt;&lt;p style=&quot;margin:0px;margin-left:4px;&quot;&gt;&amp;nbsp;+ deleteProfesseur(string username) : void&lt;/p&gt;&lt;p style=&quot;margin:0px;margin-left:4px;&quot;&gt;&amp;nbsp;+ creerDelegue() : void&lt;/p&gt;&lt;p style=&quot;margin:0px;margin-left:4px;&quot;&gt;&lt;br&gt;&lt;/p&gt;" style="verticalAlign=top;align=left;overflow=fill;html=1;whiteSpace=wrap;fontSize=17;labelBackgroundColor=none;" parent="1" vertex="1">
          <mxGeometry x="1110" y="540" width="480" height="280" as="geometry" />
        </mxCell>
        <mxCell id="MRRiI0vzuQ_NeNsmJOBv-135" style="rounded=0;orthogonalLoop=1;jettySize=auto;html=1;endSize=13;fontSize=17;labelBackgroundColor=default;fontColor=default;strokeColor=default;align=center;verticalAlign=middle;fontFamily=Helvetica;startArrow=open;startFill=0;startSize=13;endArrow=none;" parent="1" source="MRRiI0vzuQ_NeNsmJOBv-130" target="94EZLkctISXA683zea8p-2" edge="1">
          <mxGeometry relative="1" as="geometry">
            <mxPoint x="1585" y="270.090909090909" as="targetPoint" />
          </mxGeometry>
        </mxCell>
        <mxCell id="MRRiI0vzuQ_NeNsmJOBv-130" value="&lt;p style=&quot;margin:0px;margin-top:4px;text-align:center;&quot;&gt;&lt;b&gt;NotificationSysteme&lt;/b&gt;&lt;/p&gt;&lt;hr style=&quot;border-style:solid;&quot;&gt;&lt;div style=&quot;height:2px;&quot;&gt;&lt;/div&gt;&lt;hr style=&quot;border-style:solid;&quot;&gt;&lt;div style=&quot;height:2px;&quot;&gt;&lt;/div&gt;" style="verticalAlign=top;align=left;overflow=fill;html=1;whiteSpace=wrap;fontSize=17;labelBackgroundColor=none;" parent="1" vertex="1">
          <mxGeometry x="2760" y="520" width="250" height="80" as="geometry" />
        </mxCell>
        <mxCell id="MRRiI0vzuQ_NeNsmJOBv-133" style="rounded=0;orthogonalLoop=1;jettySize=auto;html=1;endSize=13;fontSize=17;labelBackgroundColor=default;fontColor=default;strokeColor=default;align=center;verticalAlign=middle;fontFamily=Helvetica;startArrow=open;startFill=0;startSize=13;endArrow=none;" parent="1" source="MRRiI0vzuQ_NeNsmJOBv-132" target="94EZLkctISXA683zea8p-2" edge="1">
          <mxGeometry relative="1" as="geometry">
            <mxPoint x="1585" y="270.090909090909" as="targetPoint" />
          </mxGeometry>
        </mxCell>
        <mxCell id="MRRiI0vzuQ_NeNsmJOBv-132" value="&lt;p style=&quot;margin:0px;margin-top:4px;text-align:center;&quot;&gt;&lt;b&gt;NotificationCahierTexte&lt;/b&gt;&lt;/p&gt;&lt;hr style=&quot;border-style:solid;&quot;&gt;&lt;div style=&quot;height:2px;&quot;&gt;&lt;/div&gt;&lt;hr style=&quot;border-style:solid;&quot;&gt;&lt;div style=&quot;height:2px;&quot;&gt;&amp;nbsp; + envoyerNotificationCahier(User user , string message , Seance seance)&lt;/div&gt;&lt;div style=&quot;height:2px;&quot;&gt;&lt;br&gt;&lt;/div&gt;&lt;div style=&quot;height:2px;&quot;&gt;&lt;br&gt;&lt;/div&gt;&lt;div style=&quot;height:2px;&quot;&gt;&lt;br&gt;&lt;/div&gt;&lt;div style=&quot;height:2px;&quot;&gt;&lt;br&gt;&lt;/div&gt;&lt;div style=&quot;height:2px;&quot;&gt;&lt;br&gt;&lt;/div&gt;&lt;div style=&quot;height:2px;&quot;&gt;&lt;br&gt;&lt;/div&gt;&lt;div style=&quot;height:2px;&quot;&gt;&amp;nbsp;&lt;/div&gt;&lt;div style=&quot;height:2px;&quot;&gt;&lt;br&gt;&lt;/div&gt;&lt;div style=&quot;height:2px;&quot;&gt;&lt;div style=&quot;height: 2px;&quot;&gt;&amp;nbsp; +&amp;nbsp;getNotificationsNonLues(User user) : List&amp;lt;Notification&amp;gt;&lt;/div&gt;&lt;div style=&quot;height: 2px;&quot;&gt;&lt;br&gt;&lt;/div&gt;&lt;div style=&quot;height: 2px;&quot;&gt;&lt;br&gt;&lt;/div&gt;&lt;div style=&quot;height: 2px;&quot;&gt;&lt;br&gt;&lt;/div&gt;&lt;div style=&quot;height: 2px;&quot;&gt;&lt;br&gt;&lt;/div&gt;&lt;div style=&quot;height: 2px;&quot;&gt;&lt;br&gt;&lt;/div&gt;&lt;div style=&quot;height: 2px;&quot;&gt;&lt;br&gt;&lt;/div&gt;&lt;div style=&quot;height: 2px;&quot;&gt;&lt;br&gt;&lt;/div&gt;&lt;div style=&quot;height: 2px;&quot;&gt;&lt;br&gt;&lt;/div&gt;&lt;div style=&quot;height: 2px;&quot;&gt;&lt;br&gt;&lt;/div&gt;&lt;div style=&quot;height: 2px;&quot;&gt;&lt;br&gt;&lt;/div&gt;&lt;div style=&quot;height: 2px;&quot;&gt;&amp;nbsp; +&amp;nbsp;marquerCommeLue(Notification notification) : void&lt;/div&gt;&lt;/div&gt;" style="verticalAlign=top;align=left;overflow=fill;html=1;whiteSpace=wrap;fontSize=17;labelBackgroundColor=none;" parent="1" vertex="1">
          <mxGeometry x="1940" y="410" width="583" height="130" as="geometry" />
        </mxCell>
        <mxCell id="94EZLkctISXA683zea8p-2" value="&lt;p style=&quot;margin:0px;margin-top:4px;text-align:center;&quot;&gt;&lt;b&gt;Notification&lt;/b&gt;&lt;/p&gt;&lt;hr style=&quot;border-style:solid;&quot;&gt;&lt;div&gt;&amp;nbsp;&lt;span style=&quot;color: light-dark(rgb(29, 53, 87), rgb(176, 196, 226));&quot;&gt;- Message : String&lt;/span&gt;&lt;/div&gt;&lt;div&gt;&amp;nbsp;&lt;span style=&quot;color: light-dark(rgb(29, 53, 87), rgb(176, 196, 226));&quot;&gt;- Type : Enum&lt;/span&gt;&lt;/div&gt;&lt;div&gt;&lt;span style=&quot;color: light-dark(rgb(29, 53, 87), rgb(176, 196, 226));&quot;&gt;&amp;nbsp;&lt;/span&gt;&lt;span style=&quot;color: light-dark(rgb(29, 53, 87), rgb(176, 196, 226));&quot;&gt;- Lu : boolean&lt;/span&gt;&lt;/div&gt;&lt;div&gt;&lt;span style=&quot;color: light-dark(rgb(29, 53, 87), rgb(176, 196, 226));&quot;&gt;&amp;nbsp;&lt;/span&gt;&lt;span style=&quot;color: light-dark(rgb(29, 53, 87), rgb(176, 196, 226));&quot;&gt;- date_lecture : date&lt;/span&gt;&lt;/div&gt;&lt;div&gt;&lt;span style=&quot;color: light-dark(rgb(29, 53, 87), rgb(176, 196, 226));&quot;&gt;&amp;nbsp;- date_envoie : date&lt;/span&gt;&lt;/div&gt;&lt;div&gt;&lt;div style=&quot;height:2px;&quot;&gt;&lt;br&gt;&lt;/div&gt;&lt;hr style=&quot;border-style:solid;&quot;&gt;&lt;div style=&quot;height:2px;&quot;&gt;&amp;nbsp;+ getMessage() : string&lt;/div&gt;&lt;/div&gt;&lt;div style=&quot;height:2px;&quot;&gt;&lt;br&gt;&lt;/div&gt;&lt;div style=&quot;height:2px;&quot;&gt;&lt;br&gt;&lt;/div&gt;&lt;div style=&quot;height:2px;&quot;&gt;&lt;br&gt;&lt;/div&gt;&lt;div style=&quot;height:2px;&quot;&gt;&lt;br&gt;&lt;/div&gt;&lt;div style=&quot;height:2px;&quot;&gt;&lt;br&gt;&lt;/div&gt;&lt;div style=&quot;height:2px;&quot;&gt;&lt;br&gt;&lt;/div&gt;&lt;div style=&quot;height:2px;&quot;&gt;&lt;br&gt;&lt;/div&gt;&lt;div style=&quot;height:2px;&quot;&gt;&lt;br&gt;&lt;/div&gt;&lt;div style=&quot;height:2px;&quot;&gt;&amp;nbsp;+ getStatusLecture() : boolean&lt;/div&gt;&lt;div style=&quot;height:2px;&quot;&gt;&lt;br&gt;&lt;/div&gt;&lt;div style=&quot;height:2px;&quot;&gt;&lt;br&gt;&lt;/div&gt;&lt;div style=&quot;height:2px;&quot;&gt;&lt;br&gt;&lt;/div&gt;&lt;div style=&quot;height:2px;&quot;&gt;&lt;br&gt;&lt;/div&gt;&lt;div style=&quot;height:2px;&quot;&gt;&lt;br&gt;&lt;/div&gt;&lt;div style=&quot;height:2px;&quot;&gt;&lt;br&gt;&lt;/div&gt;&lt;div style=&quot;height:2px;&quot;&gt;&lt;br&gt;&lt;/div&gt;&lt;div style=&quot;height:2px;&quot;&gt;&lt;br&gt;&lt;/div&gt;&lt;div style=&quot;height:2px;&quot;&gt;&amp;nbsp;+ getDateLecture() : Date&lt;/div&gt;" style="verticalAlign=top;align=left;overflow=fill;html=1;whiteSpace=wrap;fontSize=17;labelBackgroundColor=none;" parent="1" vertex="1">
          <mxGeometry x="2490" y="110" width="287" height="240" as="geometry" />
        </mxCell>
        <mxCell id="94EZLkctISXA683zea8p-8" value="&lt;p style=&quot;margin:0px;margin-top:4px;text-align:center;&quot;&gt;&lt;i&gt;&amp;lt;&amp;lt;Interface&amp;gt;&amp;gt;&lt;/i&gt;&lt;br&gt;&lt;b&gt;GestionEnseignent&lt;/b&gt;&lt;/p&gt;&lt;hr style=&quot;border-style:solid;&quot;&gt;&lt;p style=&quot;margin:0px;margin-left:4px;&quot;&gt;&lt;br&gt;&lt;/p&gt;&lt;hr style=&quot;border-style:solid;&quot;&gt;&lt;div style=&quot;height: 2px;&quot;&gt;&amp;nbsp;&lt;span style=&quot;background-color: transparent; color: light-dark(rgb(0, 0, 0), rgb(255, 255, 255));&quot;&gt;+&amp;nbsp;getUEsEnseignees() : List&amp;lt;UE&amp;gt;&lt;/span&gt;&lt;br&gt;&lt;/div&gt;&lt;div style=&quot;height: 2px;&quot;&gt;&lt;span style=&quot;background-color: transparent; color: light-dark(rgb(0, 0, 0), rgb(255, 255, 255));&quot;&gt;&lt;br&gt;&lt;/span&gt;&lt;/div&gt;&lt;p&gt;&lt;span style=&quot;background-color: transparent; color: light-dark(rgb(0, 0, 0), rgb(255, 255, 255));&quot;&gt;&amp;nbsp;+ seanceFaites() : List&amp;lt;Seance&amp;gt;&lt;/span&gt;&lt;/p&gt;" style="verticalAlign=top;align=left;overflow=fill;html=1;whiteSpace=wrap;fontSize=17;labelBackgroundColor=none;" parent="1" vertex="1">
          <mxGeometry x="1290" y="1050" width="490" height="170" as="geometry" />
        </mxCell>
        <mxCell id="TgIcoWI04hzJOjvMOH4S-8" value="&amp;lt;&amp;lt;enum&amp;gt;&amp;gt; RoleEnum" style="swimlane;fontStyle=1;align=center;verticalAlign=top;childLayout=stackLayout;horizontal=1;startSize=26;horizontalStack=0;resizeParent=1;resizeParentMax=0;resizeLast=0;collapsible=1;marginBottom=0;whiteSpace=wrap;html=1;fontSize=17;" vertex="1" parent="1">
          <mxGeometry x="1700" y="190" width="480" height="110" as="geometry" />
        </mxCell>
        <mxCell id="TgIcoWI04hzJOjvMOH4S-9" value="ADMINISTRATEUR&lt;div&gt;DELEGUE&lt;/div&gt;&lt;div&gt;PROFESSEUR&lt;/div&gt;" style="text;strokeColor=none;fillColor=none;align=left;verticalAlign=top;spacingLeft=4;spacingRight=4;overflow=hidden;rotatable=0;points=[[0,0.5],[1,0.5]];portConstraint=eastwest;whiteSpace=wrap;html=1;fontSize=17;" vertex="1" parent="TgIcoWI04hzJOjvMOH4S-8">
          <mxGeometry y="26" width="480" height="84" as="geometry" />
        </mxCell>
        <mxCell id="TgIcoWI04hzJOjvMOH4S-13" value="&lt;p style=&quot;margin:0px;margin-top:4px;text-align:center;&quot;&gt;&lt;b&gt;Role&lt;/b&gt;&lt;/p&gt;&lt;hr style=&quot;border-style:solid;&quot;&gt;&lt;p style=&quot;margin:0px;margin-left:4px;&quot;&gt;- description : String&lt;/p&gt;&lt;p style=&quot;margin:0px;margin-left:4px;&quot;&gt;- Role : RoleEnum&lt;/p&gt;&lt;hr style=&quot;border-style:solid;&quot;&gt;&lt;p style=&quot;margin:0px;margin-left:4px;&quot;&gt;+ getRole() : RoleEnum&lt;/p&gt;&lt;p style=&quot;margin:0px;margin-left:4px;&quot;&gt;+ setRole(RoleEnum role) : void&lt;/p&gt;&lt;p style=&quot;margin:0px;margin-left:4px;&quot;&gt;+ getDescription() : String&lt;/p&gt;&lt;p style=&quot;margin:0px;margin-left:4px;&quot;&gt;+ setDescription(String description) : void&lt;/p&gt;" style="verticalAlign=top;align=left;overflow=fill;html=1;whiteSpace=wrap;fontSize=17;" vertex="1" parent="1">
          <mxGeometry x="980" y="50" width="330" height="200" as="geometry" />
        </mxCell>
        <mxCell id="TgIcoWI04hzJOjvMOH4S-20" value="&lt;p style=&quot;margin:0px;margin-top:4px;text-align:center;&quot;&gt;&lt;span&gt;&lt;b&gt;AuthentificationSerivece&lt;/b&gt;&lt;/span&gt;&lt;/p&gt;&lt;hr style=&quot;border-style:solid;&quot;&gt;&lt;p style=&quot;margin:0px;margin-left:4px;&quot;&gt;&lt;br&gt;&lt;/p&gt;&lt;hr style=&quot;border-style:solid;&quot;&gt;&lt;p style=&quot;margin:0px;margin-left:4px;&quot;&gt;&lt;font&gt;+ authentifier(String username , String password) : boolean&lt;/font&gt;&lt;/p&gt;&lt;p style=&quot;margin:0px;margin-left:4px;&quot;&gt;&lt;font&gt;&amp;nbsp;+ deconnexion (User user) : void&lt;/font&gt;&lt;/p&gt;" style="verticalAlign=top;align=left;overflow=fill;html=1;whiteSpace=wrap;fontSize=17;" vertex="1" parent="1">
          <mxGeometry x="1120" y="340" width="480" height="150" as="geometry" />
        </mxCell>
        <mxCell id="TgIcoWI04hzJOjvMOH4S-1" value="&lt;p style=&quot;margin:0px;margin-top:4px;text-align:center;&quot;&gt;&lt;i&gt;&amp;lt;&amp;lt;Interface&amp;gt;&amp;gt;&lt;/i&gt;&lt;br&gt;&lt;b&gt;GestionInformation&lt;/b&gt;&lt;/p&gt;&lt;hr style=&quot;border-style:solid;&quot;&gt;&lt;p style=&quot;margin:0px;margin-left:4px;&quot;&gt;&lt;br&gt;&lt;/p&gt;&lt;hr style=&quot;border-style:solid;&quot;&gt;&lt;p style=&quot;margin:0px;margin-left:4px;&quot;&gt;&lt;span style=&quot;background-color: transparent; color: light-dark(rgb(0, 0, 0), rgb(255, 255, 255));&quot;&gt;&amp;nbsp;+ creerNiveau() : void&lt;/span&gt;&lt;/p&gt;&lt;p style=&quot;margin:0px;margin-left:4px;&quot;&gt;&amp;nbsp;+ creerFiliere() : void&lt;/p&gt;&lt;p style=&quot;margin:0px;margin-left:4px;&quot;&gt;&amp;nbsp;+ creerUe() : void&lt;/p&gt;&lt;p style=&quot;margin:0px;margin-left:4px;&quot;&gt;&lt;br&gt;&lt;/p&gt;&lt;p style=&quot;margin:0px;margin-left:4px;&quot;&gt;&lt;br&gt;&lt;/p&gt;" style="verticalAlign=top;align=left;overflow=fill;html=1;whiteSpace=wrap;fontSize=17;labelBackgroundColor=none;" vertex="1" parent="1">
          <mxGeometry x="150" y="980" width="510" height="180" as="geometry" />
        </mxCell>
      </root>
    </mxGraphModel>
  </diagram>
  <diagram id="52mqqoq0OMUomRf7Oh0j" name="Diagramme Composant">
    <mxGraphModel dx="1246" dy="511" grid="1" gridSize="10" guides="1" tooltips="1" connect="1" arrows="1" fold="1" page="1" pageScale="1" pageWidth="1654" pageHeight="2336" math="0" shadow="0">
      <root>
        <mxCell id="0" />
        <mxCell id="1" parent="0" />
      </root>
    </mxGraphModel>
  </diagram>
</mxfile>
